M48
; DRILL file {KiCad (6.0.7)} date Thu Sep  1 21:18:47 2022
; FORMAT={-:-/ absolute / metric / decimal}
; #@! TF.CreationDate,2022-09-01T21:18:47+02:00
; #@! TF.GenerationSoftware,Kicad,Pcbnew,(6.0.7)
; #@! TF.FileFunction,Plated,1,2,PTH
FMAT,2
METRIC
; #@! TA.AperFunction,Plated,PTH,ComponentDrill
T1C1.000
; #@! TA.AperFunction,Plated,PTH,ComponentDrill
T2C1.020
; #@! TA.AperFunction,Plated,PTH,ComponentDrill
T3C1.100
; #@! TA.AperFunction,Plated,PTH,ComponentDrill
T4C3.000
%
G90
G05
T1
X93.7Y-30.25
X93.7Y-32.75
X93.725Y-20.05
X93.725Y-22.55
X93.725Y-40.25
X93.725Y-42.75
T2
X18.6Y-25.29
X18.6Y-32.91
X21.71Y-41.365
X22.835Y-16.653
X22.895Y-47.263
X24.25Y-41.365
X25.375Y-16.653
X25.49Y-19.6
X25.495Y-47.243
X25.59Y-22.4
X26.79Y-41.365
X26.861Y-26.435
X27.49Y-32.865
X27.915Y-16.653
X28.035Y-47.243
X29.33Y-41.365
X29.4Y-26.435
X30.03Y-32.865
X30.455Y-16.653
X30.575Y-47.243
X31.87Y-41.365
X31.939Y-26.413
X32.57Y-32.865
X32.995Y-16.653
X33.11Y-19.6
X33.115Y-47.243
X33.21Y-22.4
X34.41Y-41.365
X34.477Y-26.435
X35.11Y-32.865
X35.535Y-16.653
X35.655Y-47.243
X36.95Y-41.365
X37.017Y-26.435
X38.075Y-16.653
X38.195Y-47.243
X39.49Y-41.365
X39.86Y-20.5
X40.615Y-16.653
X40.735Y-47.243
X42.4Y-20.5
X43.155Y-16.653
X43.275Y-47.243
X44.118Y-29.9
X44.94Y-20.5
X45.695Y-16.653
X45.815Y-47.243
X46.618Y-29.9
X47.48Y-20.5
X48.235Y-16.653
X48.355Y-47.243
X49.81Y-40.88
X50.02Y-20.5
X50.775Y-16.653
X50.895Y-47.243
X51.99Y-33.7
X52.35Y-40.88
X52.56Y-20.5
X53.315Y-16.653
X53.435Y-47.243
X54.89Y-40.88
X55.04Y-30.2
X55.1Y-20.5
X55.855Y-16.653
X55.975Y-47.243
X57.43Y-40.88
X57.58Y-30.2
X58.395Y-16.653
X58.515Y-47.243
X59.61Y-33.7
X59.97Y-40.88
X60.935Y-16.653
X61.055Y-47.243
X62.5Y-25.89
X62.5Y-33.51
X62.51Y-40.88
X65.05Y-40.88
X67.59Y-40.88
X67.6Y-27.882
X67.6Y-30.382
X75.785Y-21.88
X75.785Y-34.58
X77.8Y-43.4
X80.3Y-43.4
X83.405Y-21.88
X83.405Y-34.58
T3
X52.5Y-30.2
T4
X17.9Y-45.9
X18.4Y-17.9
X123.9Y-17.9
X123.9Y-45.9
T0
M30
