%TF.GenerationSoftware,KiCad,Pcbnew,(6.0.7)*%
%TF.CreationDate,2022-09-01T21:18:45+02:00*%
%TF.ProjectId,AirQualitySensorBreakOutBoard,41697251-7561-46c6-9974-7953656e736f,rev?*%
%TF.SameCoordinates,Original*%
%TF.FileFunction,Copper,L2,Bot*%
%TF.FilePolarity,Positive*%
%FSLAX46Y46*%
G04 Gerber Fmt 4.6, Leading zero omitted, Abs format (unit mm)*
G04 Created by KiCad (PCBNEW (6.0.7)) date 2022-09-01 21:18:45*
%MOMM*%
%LPD*%
G01*
G04 APERTURE LIST*
G04 Aperture macros list*
%AMRoundRect*
0 Rectangle with rounded corners*
0 $1 Rounding radius*
0 $2 $3 $4 $5 $6 $7 $8 $9 X,Y pos of 4 corners*
0 Add a 4 corners polygon primitive as box body*
4,1,4,$2,$3,$4,$5,$6,$7,$8,$9,$2,$3,0*
0 Add four circle primitives for the rounded corners*
1,1,$1+$1,$2,$3*
1,1,$1+$1,$4,$5*
1,1,$1+$1,$6,$7*
1,1,$1+$1,$8,$9*
0 Add four rect primitives between the rounded corners*
20,1,$1+$1,$2,$3,$4,$5,0*
20,1,$1+$1,$4,$5,$6,$7,0*
20,1,$1+$1,$6,$7,$8,$9,0*
20,1,$1+$1,$8,$9,$2,$3,0*%
G04 Aperture macros list end*
%TA.AperFunction,ComponentPad*%
%ADD10RoundRect,0.250000X-0.750000X0.600000X-0.750000X-0.600000X0.750000X-0.600000X0.750000X0.600000X0*%
%TD*%
%TA.AperFunction,ComponentPad*%
%ADD11O,2.000000X1.700000*%
%TD*%
%TA.AperFunction,ComponentPad*%
%ADD12C,3.800000*%
%TD*%
%TA.AperFunction,ComponentPad*%
%ADD13C,2.000000*%
%TD*%
%TA.AperFunction,ComponentPad*%
%ADD14R,2.000000X2.000000*%
%TD*%
%TA.AperFunction,ComponentPad*%
%ADD15O,2.000000X2.000000*%
%TD*%
%TA.AperFunction,ComponentPad*%
%ADD16C,2.286000*%
%TD*%
%TA.AperFunction,Conductor*%
%ADD17C,1.000000*%
%TD*%
G04 APERTURE END LIST*
D10*
%TO.P,J2,1,Pin_1*%
%TO.N,Solar_IN*%
X93725000Y-20050000D03*
D11*
%TO.P,J2,2,Pin_2*%
%TO.N,GND*%
X93725000Y-22550000D03*
%TD*%
D12*
%TO.P,,1*%
%TO.N,N/C*%
X123900000Y-17900000D03*
%TD*%
D13*
%TO.P,U1,1,VCC*%
%TO.N,5V0*%
X21710000Y-41365000D03*
%TO.P,U1,2,GND*%
%TO.N,VDD2*%
X24250000Y-41365000D03*
%TO.P,U1,3,SET*%
%TO.N,PULLUP_1*%
X26790000Y-41365000D03*
%TO.P,U1,4,RXD*%
%TO.N,TX1*%
X29330000Y-41365000D03*
%TO.P,U1,5,TXD*%
%TO.N,RX1*%
X31870000Y-41365000D03*
%TO.P,U1,6,RESET*%
%TO.N,PULLUP_1*%
X34410000Y-41365000D03*
%TO.P,U1,7,NC*%
%TO.N,unconnected-(U1-Pad7)*%
X36950000Y-41365000D03*
%TO.P,U1,8,NC*%
%TO.N,unconnected-(U1-Pad8)*%
X39490000Y-41365000D03*
%TD*%
D14*
%TO.P,C1,1*%
%TO.N,5V0*%
X67600000Y-30382379D03*
D13*
%TO.P,C1,2*%
%TO.N,VDD2*%
X67600000Y-27882379D03*
%TD*%
%TO.P,R1,1*%
%TO.N,VDD_EN*%
X62500000Y-33510000D03*
D15*
%TO.P,R1,2*%
%TO.N,Net-(Q1-Pad1)*%
X62500000Y-25890000D03*
%TD*%
D13*
%TO.P,U4,1,VIN*%
%TO.N,3V3*%
X27490000Y-32865000D03*
%TO.P,U4,2,GND*%
%TO.N,VDD2*%
X30030000Y-32865000D03*
%TO.P,U4,3,SCL*%
%TO.N,SCL*%
X32570000Y-32865000D03*
%TO.P,U4,4,SDA*%
%TO.N,SDA*%
X35110000Y-32865000D03*
%TD*%
%TO.P,R4,1*%
%TO.N,3V3*%
X25590000Y-22400000D03*
D15*
%TO.P,R4,2*%
%TO.N,SDA*%
X33210000Y-22400000D03*
%TD*%
D13*
%TO.P,R5,1*%
%TO.N,GND*%
X59610000Y-33700000D03*
%TO.P,R5,2*%
%TO.N,Net-(Q1-Pad1)*%
X51990000Y-33700000D03*
%TD*%
%TO.P,Q1,1,G*%
%TO.N,Net-(Q1-Pad1)*%
X52500000Y-30200000D03*
%TO.P,Q1,2,D*%
%TO.N,VDD2*%
X55040000Y-30200000D03*
%TO.P,Q1,3,S*%
%TO.N,GND*%
X57580000Y-30200000D03*
%TD*%
%TO.P,R3,1*%
%TO.N,SCL*%
X33110000Y-19600000D03*
D15*
%TO.P,R3,2*%
%TO.N,3V3*%
X25490000Y-19600000D03*
%TD*%
D12*
%TO.P,REF\u002A\u002A,1*%
%TO.N,N/C*%
X17900000Y-45900000D03*
%TD*%
D14*
%TO.P,J4,1,Pin_1*%
%TO.N,3V3*%
X55100000Y-20500000D03*
D15*
%TO.P,J4,2,Pin_2*%
%TO.N,5V0*%
X52560000Y-20500000D03*
%TO.P,J4,3,Pin_3*%
%TO.N,VDD2*%
X50020000Y-20500000D03*
%TO.P,J4,4,Pin_4*%
%TO.N,SPI_SS*%
X47480000Y-20500000D03*
%TO.P,J4,5,Pin_5*%
%TO.N,SPI_SCK*%
X44940000Y-20500000D03*
%TO.P,J4,6,Pin_6*%
%TO.N,SPI_MISO*%
X42400000Y-20500000D03*
%TO.P,J4,7,Pin_7*%
%TO.N,SPI_MOSI*%
X39860000Y-20500000D03*
%TD*%
D14*
%TO.P,C3,1*%
%TO.N,Solar_IN*%
X77800000Y-43400000D03*
D13*
%TO.P,C3,2*%
%TO.N,GND*%
X80300000Y-43400000D03*
%TD*%
D14*
%TO.P,C2,1*%
%TO.N,3V3*%
X44117621Y-29900000D03*
D13*
%TO.P,C2,2*%
%TO.N,GND*%
X46617621Y-29900000D03*
%TD*%
%TO.P,U6,0,0*%
%TO.N,unconnected-(U6-Pad0)*%
X53314649Y-16653002D03*
%TO.P,U6,01,TXD*%
%TO.N,unconnected-(U6-Pad01)*%
X22834649Y-16653002D03*
%TO.P,U6,02,02*%
%TO.N,unconnected-(U6-Pad02)*%
X48354649Y-47243002D03*
%TO.P,U6,03,RXD*%
%TO.N,unconnected-(U6-Pad03)*%
X25374649Y-16653002D03*
%TO.P,U6,3V3,3V3*%
%TO.N,3V3*%
X22894649Y-47263002D03*
X27914649Y-16653002D03*
%TO.P,U6,04,04*%
%TO.N,unconnected-(U6-Pad04)*%
X45814649Y-47243002D03*
%TO.P,U6,05,SPI__SS*%
%TO.N,SPI_SS*%
X45694649Y-16653002D03*
%TO.P,U6,12,12*%
%TO.N,VDD_EN*%
X58514649Y-47243002D03*
%TO.P,U6,13,13*%
%TO.N,unconnected-(U6-Pad13)*%
X55974649Y-47243002D03*
%TO.P,U6,14,14*%
%TO.N,unconnected-(U6-Pad14)*%
X53434649Y-47243002D03*
%TO.P,U6,15,15*%
%TO.N,unconnected-(U6-Pad15)*%
X50894649Y-47243002D03*
%TO.P,U6,18,SPI_SCK*%
%TO.N,SPI_SCK*%
X43154649Y-16653002D03*
%TO.P,U6,19,SPI_MISO*%
%TO.N,SPI_MISO*%
X40614649Y-16653002D03*
%TO.P,U6,21,I2C_SDA*%
%TO.N,SDA*%
X35534649Y-16653002D03*
%TO.P,U6,22,I2C_SCL*%
%TO.N,SCL*%
X32994649Y-16653002D03*
%TO.P,U6,23,SPI_MOSI*%
%TO.N,SPI_MOSI*%
X38074649Y-16653002D03*
%TO.P,U6,25,25*%
%TO.N,unconnected-(U6-Pad25)*%
X38194649Y-47243002D03*
%TO.P,U6,26,26*%
%TO.N,unconnected-(U6-Pad26)*%
X40734649Y-47243002D03*
%TO.P,U6,27,27*%
%TO.N,unconnected-(U6-Pad27)*%
X43274649Y-47243002D03*
%TO.P,U6,32,32*%
%TO.N,TX1*%
X28034649Y-47243002D03*
%TO.P,U6,33,33*%
%TO.N,RX1*%
X30574649Y-47243002D03*
%TO.P,U6,34,34*%
%TO.N,TX2*%
X33114649Y-47243002D03*
%TO.P,U6,35,35*%
%TO.N,RX2*%
X35654649Y-47243002D03*
%TO.P,U6,36,36*%
%TO.N,unconnected-(U6-Pad36)*%
X50774649Y-16653002D03*
%TO.P,U6,39,39*%
%TO.N,unconnected-(U6-Pad39)*%
X48234649Y-16653002D03*
%TO.P,U6,GND,GND*%
%TO.N,GND*%
X25494649Y-47243002D03*
X30454649Y-16653002D03*
X58394649Y-16653002D03*
%TO.P,U6,RST,RST*%
%TO.N,unconnected-(U6-PadRST)*%
X55854649Y-16653002D03*
%TO.P,U6,VBAT,VBAT*%
%TO.N,unconnected-(U6-PadVBAT)*%
X61054649Y-47243002D03*
%TO.P,U6,VIN,VIN*%
%TO.N,unconnected-(U6-PadVIN)*%
X60934649Y-16653002D03*
%TD*%
%TO.P,R2,1*%
%TO.N,PULLUP_1*%
X18600000Y-32910000D03*
D15*
%TO.P,R2,2*%
%TO.N,3V3*%
X18600000Y-25290000D03*
%TD*%
D13*
%TO.P,U2,1,VCC*%
%TO.N,5V0*%
X49810000Y-40880000D03*
%TO.P,U2,2,GND*%
%TO.N,VDD2*%
X52350000Y-40880000D03*
%TO.P,U2,3,SET*%
%TO.N,PULLUP_1*%
X54890000Y-40880000D03*
%TO.P,U2,4,RXD*%
%TO.N,TX2*%
X57430000Y-40880000D03*
%TO.P,U2,5,TXD*%
%TO.N,RX2*%
X59970000Y-40880000D03*
%TO.P,U2,6,RESET*%
%TO.N,PULLUP_1*%
X62510000Y-40880000D03*
%TO.P,U2,7,NC*%
%TO.N,unconnected-(U2-Pad7)*%
X65050000Y-40880000D03*
%TO.P,U2,8,NC*%
%TO.N,unconnected-(U2-Pad8)*%
X67590000Y-40880000D03*
%TD*%
D12*
%TO.P,,1*%
%TO.N,N/C*%
X18400000Y-17900000D03*
%TD*%
%TO.P,,1*%
%TO.N,N/C*%
X123900000Y-45900000D03*
%TD*%
D10*
%TO.P,J1,1,Pin_1*%
%TO.N,Solar_IN*%
X93725000Y-40250000D03*
D11*
%TO.P,J1,2,Pin_2*%
%TO.N,GND*%
X93725000Y-42750000D03*
%TD*%
D13*
%TO.P,U3,1,VDD*%
%TO.N,5V0*%
X37017024Y-26435000D03*
%TO.P,U3,2,SDA*%
%TO.N,SDA*%
X34477024Y-26435000D03*
%TO.P,U3,3,SCL*%
%TO.N,SCL*%
X31938512Y-26413488D03*
%TO.P,U3,4,SEL*%
%TO.N,VDD2*%
X29400000Y-26435001D03*
%TO.P,U3,5,GND*%
X26861488Y-26435001D03*
%TD*%
D16*
%TO.P,REF\u002A\u002A,1*%
%TO.N,3V3*%
X75785000Y-34580000D03*
%TO.P,REF\u002A\u002A,2*%
%TO.N,VDD2*%
X83405000Y-34580000D03*
%TO.P,REF\u002A\u002A,3*%
%TO.N,5V0*%
X75785000Y-21880000D03*
%TO.P,REF\u002A\u002A,4*%
%TO.N,VDD2*%
X83405000Y-21880000D03*
%TD*%
D10*
%TO.P,J3,1,Pin_1*%
%TO.N,Solar_IN*%
X93700000Y-30250000D03*
D11*
%TO.P,J3,2,Pin_2*%
%TO.N,GND*%
X93700000Y-32750000D03*
%TD*%
D17*
%TO.N,GND*%
X30454649Y-16653002D02*
X30454649Y-14500000D01*
X58000000Y-14500000D02*
X58394649Y-14894649D01*
X30454649Y-14500000D02*
X58000000Y-14500000D01*
X58394649Y-14894649D02*
X58394649Y-16653002D01*
%TO.N,SCL*%
X31000000Y-19600000D02*
X33110000Y-19600000D01*
X33110000Y-19600000D02*
X32994649Y-19484649D01*
X32994649Y-19484649D02*
X32994649Y-16653002D01*
X31938512Y-26878487D02*
X31938512Y-26413488D01*
X31000000Y-25474976D02*
X31000000Y-19600000D01*
X31938512Y-26413488D02*
X31000000Y-25474976D01*
%TO.N,TX1*%
X28034649Y-44465351D02*
X28034649Y-47243002D01*
X29330000Y-43170000D02*
X28034649Y-44465351D01*
X29330000Y-41365000D02*
X29330000Y-43170000D01*
%TO.N,RX1*%
X31870000Y-43430000D02*
X30574649Y-44725351D01*
X31870000Y-41365000D02*
X31870000Y-43430000D01*
X30574649Y-44725351D02*
X30574649Y-47243002D01*
%TO.N,TX2*%
X35000000Y-43300000D02*
X55010000Y-43300000D01*
X33114649Y-45185351D02*
X35000000Y-43300000D01*
X55010000Y-43300000D02*
X57430000Y-40880000D01*
X33114649Y-47243002D02*
X33114649Y-45185351D01*
%TO.N,RX2*%
X55950000Y-44900000D02*
X35800000Y-44900000D01*
X35654649Y-45045351D02*
X35654649Y-47243002D01*
X59970000Y-40880000D02*
X55950000Y-44900000D01*
X35800000Y-44900000D02*
X35654649Y-45045351D01*
%TO.N,PULLUP_1*%
X62510000Y-38410000D02*
X62500000Y-38400000D01*
X62510000Y-40880000D02*
X62510000Y-38410000D01*
X34410000Y-38610000D02*
X34410000Y-41365000D01*
X54890000Y-38510000D02*
X54890000Y-40880000D01*
X27200000Y-38400000D02*
X34000000Y-38400000D01*
X26790000Y-38810000D02*
X27200000Y-38400000D01*
X26790000Y-41365000D02*
X26790000Y-38810000D01*
X62500000Y-38400000D02*
X55200000Y-38400000D01*
X55000000Y-38400000D02*
X34200000Y-38400000D01*
%TO.N,SDA*%
X35400000Y-20210000D02*
X33210000Y-22400000D01*
X35400000Y-16787651D02*
X35400000Y-20210000D01*
X33210000Y-24410000D02*
X33210000Y-22400000D01*
X35534649Y-16653002D02*
X35400000Y-16787651D01*
X34477024Y-25677024D02*
X33210000Y-24410000D01*
X34477024Y-26899999D02*
X34477024Y-25677024D01*
%TO.N,3V3*%
X55100000Y-21800000D02*
X52000000Y-24900000D01*
X27490000Y-32865000D02*
X21735000Y-32865000D01*
X44335242Y-24900000D02*
X44117621Y-25117621D01*
X44117621Y-25117621D02*
X44117621Y-29900000D01*
X19500000Y-42300000D02*
X22894649Y-45694649D01*
X55100000Y-20500000D02*
X55100000Y-21800000D01*
X19500000Y-35100000D02*
X19500000Y-42300000D01*
X52000000Y-24900000D02*
X44335242Y-24900000D01*
X21735000Y-32865000D02*
X19500000Y-35100000D01*
X22894649Y-45694649D02*
X22894649Y-47263002D01*
%TD*%
M02*
